<svg xmlns="http://www.w3.org/2000/svg" viewBox="0 0 512 512">
  <defs>
    <linearGradient id="bg" x1="0" y1="0" x2="1" y2="1">
      <stop offset="0%" stop-color="#1a1a2e"/>
      <stop offset="100%" stop-color="#0a0a1a"/>
    </linearGradient>
    <linearGradient id="coin" x1="0" y1="0" x2="1" y2="1">
      <stop offset="0%" stop-color="#ffb347"/>
      <stop offset="100%" stop-color="#f7931a"/>
    </linearGradient>
  </defs>
  <rect width="512" height="512" rx="112" fill="url(#bg)"/>
  <circle cx="256" cy="256" r="156" fill="url(#coin)"/>
  <circle cx="256" cy="256" r="124" fill="none" stroke="#ffd27a" stroke-width="12" opacity="0.65"/>
  <path d="M276 142h-26v28c-41 4-67 28-67 65 0 36 22 52 67 64v59c-16-2-31-11-44-25l-29 34c20 18 44 29 73 32v31h26v-31c45-4 72-30 72-69 0-37-23-55-72-67v-55c14 2 27 8 39 18l27-35c-17-14-38-23-66-26zm-26 146c-18-7-24-14-24-24 0-11 8-19 24-22zm26 74v-46c20 7 29 15 29 27 0 12-10 18-29 19z" fill="#ffffff"/>
  <path d="M146 386c47 23 90 31 130 31 43 0 84-9 126-28" fill="none" stroke="#66ffd1" stroke-width="12" stroke-linecap="round" opacity="0.9"/>
</svg>
